<?xml version="1.0" encoding="utf-8"?>
<!-- Generator: Adobe Illustrator 28.1.0, SVG Export Plug-In . SVG Version: 6.00 Build 0)  -->
<svg version="1.1" id="Layer_1" xmlns="http://www.w3.org/2000/svg" xmlns:xlink="http://www.w3.org/1999/xlink" x="0px" y="0px"
	 viewBox="0 0 100 100" style="enable-background:new 0 0 100 100;" xml:space="preserve">
<style type="text/css">
	.st0{fill:#C6C6C6;}
</style>
<path id="briefcase-solid" class="st0" d="M38.29,18.78H61.7c0.72,0,1.3,0.58,1.3,1.3v6.5H36.99v-6.5
	C36.99,19.37,37.57,18.78,38.29,18.78L38.29,18.78z M29.19,20.08v6.5H18.78C13.03,26.59,8.37,31.25,8.37,37v15.61h83.25V37
	c0-5.75-4.66-10.4-10.41-10.41h-10.4v-6.5c0-5.03-4.08-9.11-9.1-9.11H38.3C33.26,10.99,29.19,15.06,29.19,20.08L29.19,20.08z
	 M91.62,57.81H60.4v5.2c0,2.87-2.33,5.2-5.2,5.2l0,0H44.79c-2.87,0-5.2-2.33-5.2-5.2l0,0v-5.2H8.37v20.81
	c0.01,5.74,4.66,10.4,10.41,10.41h62.44c5.74-0.01,10.4-4.66,10.41-10.41V57.81H91.62z"/>
</svg>
