<?xml version="1.0" encoding="utf-8"?>
<!-- Generator: Adobe Illustrator 28.1.0, SVG Export Plug-In . SVG Version: 6.00 Build 0)  -->
<svg version="1.1" id="Layer_1" xmlns="http://www.w3.org/2000/svg" xmlns:xlink="http://www.w3.org/1999/xlink" x="0px" y="0px"
	 viewBox="0 0 100 100" style="enable-background:new 0 0 100 100;" xml:space="preserve">
<style type="text/css">
	.st0{fill:#C6C6C6;}
</style>
<path id="credit-card-solid" class="st0" d="M14.74,14.74c-5.56,0-10.07,4.51-10.07,10.07v5.04h90.67v-5.04
	c0-5.56-4.51-10.07-10.07-10.07H14.74z M95.34,44.96H4.66v30.22c0,5.56,4.51,10.07,10.07,10.07h70.52c5.56,0,10.07-4.51,10.07-10.07
	V44.96z M22.29,65.12h10.07c1.39,0,2.52,1.13,2.52,2.52s-1.13,2.52-2.52,2.52H22.29c-1.39,0-2.52-1.13-2.52-2.52
	S20.9,65.12,22.29,65.12z M39.92,67.64c0-1.39,1.13-2.51,2.52-2.52h20.15c1.39,0,2.52,1.13,2.52,2.52s-1.13,2.52-2.52,2.52l0,0
	H42.44C41.05,70.15,39.93,69.02,39.92,67.64L39.92,67.64z"/>
</svg>
