<?xml version="1.0" encoding="utf-8"?>
<!-- Generator: Adobe Illustrator 25.4.1, SVG Export Plug-In . SVG Version: 6.00 Build 0)  -->
<svg version="1.1" id="Layer_1" xmlns="http://www.w3.org/2000/svg" xmlns:xlink="http://www.w3.org/1999/xlink" x="0px" y="0px"
	 viewBox="0 0 420.5 426.5" style="enable-background:new 0 0 420.5 426.5;" xml:space="preserve">
<style type="text/css">
	.st0{fill:#00ADEE;}
	.st1{fill:#00A551;}
	.st2{fill:#EB008B;}
	.st3{fill:#F6921E;}
	.st4{fill:#FFF100;}
	.st5{fill:#231F20;}
	.st6{fill:#754C28;}
</style>
<path class="st0" d="M230.1,62.2c3.1,7.7,4.6,15.9,5.7,24s1.7,16.3,2.1,24.6s0.3,16.7-0.3,25c-0.6,8.4-1.9,16.7-3.9,24.9l-2.4,10.2
	l-11.3-3.7c-5.9-1.9-11.2-3.9-16.7-6.2s-10.8-4.6-16.1-7.2c-11-5.2-21.4-11.6-31.1-19c-5.2-4-10.1-8.5-14.4-13.4
	c-2.4-2.7-4.5-5.6-6.5-8.6c-1-1.6-2-3.3-2.9-4.9l-0.5-0.9l-0.6-1.2l-1.2-2.3c-5.9-11.9-10.2-25.1-11-39.5
	c-0.4-7.5,0.4-15.1,2.4-22.3c2.2-8.1,6.2-15.6,11.6-22c5.9-7,13.7-12.2,22.5-14.9c8.4-2.5,17.3-2.5,25.6-0.1
	c7.2,2.2,13.8,5.9,19.4,10.9c5,4.4,9.4,9.4,13.1,14.9C220.1,40.5,225.6,51.1,230.1,62.2L230.1,62.2L230.1,62.2z M226.4,63.9
	c-5.2-9.6-13.2-17.5-22.9-22.4c-4.5-2.2-9.3-3.8-14.3-4.5c-4.1-0.6-8.3-0.5-12.4,0.4c-2.7,0.6-5.3,1.8-7.5,3.6
	c-1.7,1.4-3.2,3-4.3,4.8c-2.6,3.9-5,10.6-5.9,18.7c-1,8.7-0.2,17.6,2.4,26l0.5,1.6l0.2,0.8l0.4,1c0.3,0.9,0.6,1.7,1,2.6
	c0.9,1.8,1.9,3.6,3,5.3c2.6,3.8,5.7,7.4,9,10.7c7,7,15.5,13.2,24.3,19.3c4.4,3,9,5.9,13.6,8.6s5.6-0.3,8.2-7.6s5.1-14.9,7-22.6
	c2-7.7,3-15.5,3-23.5C231.6,78.6,230.1,70.7,226.4,63.9L226.4,63.9z"/>
<path class="st1" d="M354.7,150.4c-5.3,3.6-11.2,6-17,8.1s-12,3.9-18.1,5.5c-6.2,1.6-12.4,2.9-18.8,3.8c-6.4,0.9-12.8,1.3-19.3,1.1
	l-8.1-0.2l1-9.1c0.5-4.7,1.1-9,1.9-13.5s1.7-8.8,2.8-13.2c2.2-9.1,5.2-17.9,9.2-26.3c2.2-4.6,4.8-8.9,7.7-13
	c1.6-2.2,3.4-4.3,5.4-6.3c1-1,2.1-2,3.2-3l0.6-0.5l0.8-0.6l1.5-1.2c8.2-6.7,17.6-11.7,27.8-14.7c5.6-1.5,11.3-2.1,17.1-1.8
	c6.4,0.3,12.7,2.1,18.4,5.1c6.2,3.3,11.3,8.3,14.8,14.4c3.2,5.9,4.7,12.5,4.2,19.2c-0.5,5.7-2.2,11.3-5,16.3
	c-2.5,4.5-5.5,8.6-9.1,12.2C369.3,139.4,362.3,145.3,354.7,150.4L354.7,150.4z M352.8,147.9c6.4-5.4,10.9-12.7,13.1-20.8
	c1-3.7,1.3-7.6,1.1-11.5c-0.2-3.2-1-6.3-2.3-9.2c-0.9-2-2.2-3.7-3.9-5c-1.3-1.1-2.7-1.9-4.3-2.5c-3.3-1.3-8.8-2-15-1.4
	c-6.7,0.7-13.2,2.7-19.1,6l-1.1,0.6l-0.5,0.3l-0.7,0.4c-0.6,0.4-1.2,0.7-1.8,1.2c-1.2,0.9-2.4,2-3.5,3.1c-2.4,2.6-4.6,5.5-6.5,8.5
	c-4.1,6.8-7.6,13.9-10.5,21.3c-1.5,3.8-3,7.7-4.2,11.6s1.1,4.2,7,4.9s12,1.4,18.1,1.6c6.1,0.3,12.1-0.2,18.1-1.5
	C342.6,154.3,348.2,151.7,352.8,147.9z"/>
<path class="st2" d="M97.1,150.3c7.8,2.9,14.9,7.3,21.6,11.9s13.2,9.7,19.6,15c6.4,5.3,12.5,11,18.3,17c5.8,6.1,11.1,12.6,15.9,19.6
	l5.9,8.7l-10.3,5.9c-5.4,3-10.4,5.6-15.8,8.2s-10.7,4.9-16.1,7.1c-11.3,4.6-23,8.1-34.9,10.3c-6.5,1.2-13.1,1.7-19.7,1.7
	c-3.6-0.1-7.2-0.4-10.7-1c-1.8-0.3-3.8-0.7-5.6-1.1l-1-0.2l-1.3-0.3l-2.5-0.6c-12.8-3.6-25.4-9.3-36.7-18.4
	c-5.8-4.7-10.9-10.4-14.9-16.8c-4.5-7.1-7.4-15-8.5-23.4c-1.2-9.1,0.2-18.3,4-26.7c3.8-7.9,9.7-14.5,17.2-19.1
	c6.4-3.9,13.6-6.3,21.1-7.1c6.6-0.8,13.3-0.6,19.8,0.3C75.1,143,86.3,146.4,97.1,150.3L97.1,150.3L97.1,150.3z M95.9,154.1
	c-10.6-2.6-21.8-2-32,1.9c-4.7,1.8-9.1,4.4-13,7.6c-3.2,2.6-5.9,5.8-8,9.4c-1.4,2.4-2.2,5.2-2.4,8c-0.1,2.2,0.1,4.3,0.6,6.4
	c1.2,4.5,4.5,10.9,9.9,17c5.8,6.6,13,11.9,20.9,15.6l1.5,0.7l0.7,0.3l1,0.4c0.9,0.4,1.6,0.7,2.6,1c1.9,0.6,3.9,1,5.9,1.3
	c4.6,0.6,9.3,0.8,13.9,0.5c9.9-0.5,20.2-2.6,30.6-5c5.2-1.3,10.4-2.7,15.5-4.3s3.6-4.4-0.1-11.2s-7.6-13.8-12.1-20.4
	c-4.3-6.6-9.5-12.7-15.3-18C110.3,160.2,103.4,156,95.9,154.1L95.9,154.1L95.9,154.1z"/>
<path class="st3" d="M98.5,298.6c6.6-5.1,14.1-8.7,21.6-11.9s15.3-6,23.2-8.6s16-4.7,24.1-6.4c8.2-1.6,16.6-2.6,25-3l10.5-0.4
	l-0.6,11.9c-0.3,6.2-0.8,11.8-1.5,17.7s-1.5,11.6-2.6,17.5c-2.1,12-5.5,23.7-10,35c-2.5,6.1-5.5,12-9.1,17.5c-2,3-4.2,5.9-6.6,8.6
	c-1.2,1.4-2.6,2.8-3.9,4.1l-0.8,0.7l-0.9,0.9l-1.9,1.7c-9.9,8.9-21.4,16.6-35.1,21.2c-7.1,2.4-14.6,3.7-22.2,3.7
	c-8.4,0-16.7-1.8-24.3-5.3c-8.3-3.8-15.4-10-20.4-17.7c-4.6-7.4-7.1-16-6.9-24.7c0.2-7.5,2-14.9,5.2-21.6c2.9-6,6.6-11.5,10.9-16.6
	C80.2,314.1,88.9,306,98.5,298.6L98.5,298.6z M101.1,301.7c-7.9,7.6-13.3,17.4-15.5,28.1c-0.9,4.9-1.1,10-0.5,15
	c0.5,4.1,1.7,8.1,3.7,11.8c1.3,2.5,3.2,4.6,5.4,6.3c1.8,1.3,3.7,2.3,5.8,2.9c4.4,1.5,11.6,2,19.6,0.7c8.7-1.4,17-4.6,24.4-9.3
	l1.4-0.9l0.7-0.4l0.8-0.6c0.8-0.5,1.5-1.1,2.2-1.6c1.5-1.3,3-2.8,4.3-4.3c3-3.6,5.6-7.4,7.8-11.5c4.8-8.6,8.6-18.5,12.1-28.5
	c1.7-5,3.2-10.2,4.6-15.4s-1.8-5.4-9.6-5.9s-15.8-0.9-23.7-0.7c-7.9,0.1-15.8,1.2-23.4,3.3C113.8,292.8,106.6,296.4,101.1,301.7
	L101.1,301.7z"/>
<path class="st4" d="M260.9,383.7c-1.6-5.3-2.5-10.8-2.6-16.4c-0.3-5.5-0.4-11-0.2-16.6c0.1-5.6,0.6-11.2,1.4-16.7
	c0.8-5.6,2.1-11.1,3.8-16.5l2.1-6.7l7.4,3c3.9,1.6,7.3,3.2,10.9,4.9s7,3.6,10.5,5.6c7.1,4,13.8,8.8,19.9,14.2c3.3,2.9,6.3,6.2,9,9.7
	c1.5,1.9,2.8,3.9,4,6.1c0.6,1.1,1.2,2.3,1.7,3.4l0.3,0.6l0.4,0.8l0.7,1.6c3.7,8.5,5.6,17.7,5.5,27c-0.1,5.1-1,10.1-2.6,14.9
	c-1.8,5.3-4.9,10.2-8.8,14.2c-4.3,4.4-9.8,7.5-15.8,8.9c-5.7,1.3-11.7,0.9-17.2-1.1c-4.7-1.8-9-4.6-12.5-8.2
	c-3.1-3.2-5.8-6.7-8-10.6C266.6,398.7,263.4,391.4,260.9,383.7L260.9,383.7L260.9,383.7z M263.4,382.7c3,6.7,8,12.3,14.3,16.1
	c2.9,1.7,6.1,3,9.4,3.7c2.7,0.6,5.6,0.7,8.3,0.3c1.9-0.3,3.6-0.9,5.2-2c1.2-0.8,2.3-1.8,3.1-3c2.5-3.7,4.2-7.9,4.9-12.2
	c1.1-5.8,0.9-11.8-0.4-17.5l-0.3-1.1l-0.1-0.5l-0.2-0.7c-0.2-0.6-0.3-1.2-0.6-1.8c-0.5-1.3-1.1-2.5-1.8-3.7
	c-1.6-2.7-3.5-5.2-5.5-7.5c-4.7-5.1-9.8-9.8-15.3-14c-2.8-2.2-5.7-4.4-8.7-6.4s-3.8-0.1-5.9,4.7s-4.1,9.8-5.7,14.8
	c-1.7,5-2.8,10.3-3.1,15.6C260.5,372.6,261.4,377.9,263.4,382.7L263.4,382.7L263.4,382.7z"/>
<path class="st5" d="M241.7,251.2c0,12.7,0,22.5,0.7,28.1c0.4,3.8,1.2,6.6,5.1,7.2c2.2,0.3,4.4,0.5,6.6,0.5c1.7,0,2.2,0.4,2.2,1.1
	c0,0.9-0.9,1.3-2.9,1.3c-8.3,0-16.6-0.4-20-0.4s-11.7,0.4-16.7,0.4c-1.8,0-2.8-0.3-2.8-1.3c0-0.7,0.5-1.1,2-1.1
	c1.6,0,3.2-0.2,4.8-0.5c2.7-0.5,3.3-3.4,3.8-7.2c0.7-5.5,0.7-15.4,0.7-28.1V228c0-20,0-23.7-0.3-27.9c-0.3-4.5-1.3-6.6-5.7-7.5
	c-1.7-0.3-3.4-0.4-5.1-0.4c-1.3,0-2.3-0.3-2.3-1.1c0-1.1,1.1-1.3,3-1.3c3.4,0,7.2,0.1,10.6,0.1s6.5,0.3,8.3,0.3c5,0,31.8,0,34.8-0.1
	c1.8,0,3.6-0.2,5.4-0.5c0.7-0.4,1.4-0.6,2.1-0.8c0.6,0.1,1,0.6,0.9,1.2c0,0.9-0.7,2.5-1,5.9c-0.1,1.3-0.4,9.1-0.7,10.6
	c-0.1,1.1-0.4,1.8-1.3,1.8s-1.2-0.7-1.3-2.1c0.1-1.7-0.2-3.4-0.8-5c-0.9-1.8-3.7-3.8-8.7-4l-20.3-0.4c-0.8,0-1.2,0.4-1.2,1.8v32.9
	c0,0.8,0.1,1.2,0.9,1.2l16.8-0.1c2.2,0,4.1,0,5.9-0.1c2.5-0.1,4.3-0.7,5.7-2.4c0.7-0.8,0.9-1.3,1.7-1.3c0.5,0,0.8,0.4,0.8,1.2
	s-0.7,4.1-1.1,8.2c-0.3,2.7-0.5,8.7-0.5,9.6c0,1.2,0,2.5-1.3,2.5c-0.8,0-1.1-0.9-1.1-1.8c-0.1-1.4-0.3-2.8-0.8-4.1
	c-1.1-2.7-3.8-4.6-6.7-4.7c-3.3-0.4-17.3-0.4-19.5-0.4c-0.7,0-0.9,0.3-0.9,1.2v10.6L241.7,251.2z"/>
<path class="st6" d="M283.3,230.3c-1.6-4.9-3-8-4.9-9.3c-1.7-0.8-3.5-1.2-5.3-1.2c-1.3,0-2.1-0.1-2.1-1.2s1.1-1.2,2.9-1.2
	c6.8,0,14.1,0.4,15.3,0.4c1.2,0,7-0.4,14.6-0.4c1.9,0,2.8,0.4,2.8,1.2c0,1.1-1.1,1.2-2.4,1.2c-1.1-0.1-2.2,0.1-3.3,0.5
	c-1.2,0.5-1.4,1.5-1.4,2.9c0,1.7,1.3,6.2,2.9,12.1c2.2,8.7,14.5,48.6,16.9,56h0.4l25.6-68.6c1.3-3.7,2.2-4.7,3.3-4.7
	c1.4,0,2.1,2,3.8,6.2l27.4,66.3h0.4c2.4-8.8,12.9-43.6,17.5-59c0.8-2.5,1.2-5,1.3-7.6c0-2.1-1.2-4-6.3-4c-1.3,0-2.2-0.4-2.2-1.2
	s1.1-1.2,3-1.2c7,0,12.5,0.4,13.7,0.4c0.9,0,6.6-0.4,10.9-0.4c1.5,0,2.4,0.3,2.4,1.1s-0.7,1.3-1.8,1.3c-1.6,0-3.1,0.2-4.6,0.7
	c-3.2,1.2-4.6,6.4-7.4,14c-6,16.6-19.9,58.5-26.3,78.2c-1.5,4.6-2.1,6.2-3.8,6.2c-1.3,0-2.1-1.6-4.1-6.5l-27.5-66h-0.3
	c-2.5,6.7-20,53.4-25.7,65.5c-2.5,5.4-3.2,7-4.7,7c-1.3,0-1.8-1.5-3-4.9L283.3,230.3z"/>
</svg>
