<?xml version="1.0" encoding="utf-8"?>
<!-- Generator: Adobe Illustrator 28.1.0, SVG Export Plug-In . SVG Version: 6.00 Build 0)  -->
<svg version="1.1" id="Layer_1" xmlns="http://www.w3.org/2000/svg" xmlns:xlink="http://www.w3.org/1999/xlink" x="0px" y="0px"
	 viewBox="0 0 100 100" style="enable-background:new 0 0 100 100;" xml:space="preserve">
<style type="text/css">
	.st0{fill:#C6C6C6;}
</style>
<path id="home" class="st0" d="M94.23,49.93c-0.02,2.71-2.21,4.91-4.92,4.93H84.4l0.11,24.62c0,0.42-0.03,0.83-0.08,1.25v2.47
	c0,3.39-2.75,6.15-6.14,6.15c0,0,0,0,0,0h-2.46c-0.17,0-0.34,0-0.51-0.01c-0.21,0.01-0.43,0.01-0.64,0.01h-8.68
	c-3.39,0-6.15-2.75-6.15-6.14c0,0,0,0,0,0V69.67c0-2.71-2.19-4.91-4.91-4.92c0,0-0.01,0-0.01,0h-9.83c-2.71,0-4.91,2.19-4.92,4.91
	c0,0,0,0.01,0,0.01V83.2c0,3.39-2.75,6.15-6.14,6.15c0,0,0,0,0,0h-8.59c-0.23,0-0.46-0.01-0.69-0.03c-0.18,0.01-0.37,0.03-0.55,0.03
	h-2.46c-3.39,0-6.15-2.75-6.15-6.14c0,0,0,0,0,0V65.99c0-0.14,0-0.29,0.02-0.43v-10.7h-4.93c-2.68,0.03-4.88-2.12-4.92-4.8
	c0-0.04,0-0.09,0-0.13c-0.02-1.39,0.53-2.73,1.54-3.69l39.4-34.34c0.9-0.87,2.13-1.31,3.38-1.23c1.17-0.02,2.31,0.36,3.23,1.08
	l39.24,34.5C93.7,47.1,94.34,48.49,94.23,49.93z"/>
</svg>
