<?xml version="1.0" encoding="utf-8"?>
<!-- Generator: Adobe Illustrator 28.1.0, SVG Export Plug-In . SVG Version: 6.00 Build 0)  -->
<svg version="1.1" id="Layer_1" xmlns="http://www.w3.org/2000/svg" xmlns:xlink="http://www.w3.org/1999/xlink" x="0px" y="0px"
	 viewBox="0 0 100 100" style="enable-background:new 0 0 100 100;" xml:space="preserve">
<style type="text/css">
	.st0{fill:#C6C6C6;}
</style>
<path id="image" class="st0" d="M5.61,22.26c0-6.13,4.97-11.1,11.1-11.1h66.57c6.13,0,11.1,4.97,11.1,11.1v55.48
	c0,6.13-4.97,11.1-11.1,11.1H16.71c-6.13,0-11.1-4.97-11.1-11.1V22.26z M61.75,40.72c-1.28-1.9-3.86-2.39-5.76-1.11
	c-0.44,0.3-0.81,0.67-1.11,1.11L39.8,62.85l-4.59-5.74c-1.43-1.79-4.04-2.08-5.83-0.65c-0.24,0.19-0.46,0.41-0.65,0.65l-11.1,13.87
	c-1.44,1.79-1.15,4.41,0.64,5.85c0.74,0.59,1.65,0.91,2.6,0.91h58.25c2.3,0,4.16-1.87,4.15-4.16c0-0.83-0.25-1.65-0.72-2.34
	L61.75,40.72z M25.03,38.9c4.6,0,8.32-3.72,8.33-8.32c0-4.6-3.72-8.32-8.32-8.33s-8.32,3.72-8.33,8.32c0,0,0,0,0,0
	C16.71,35.18,20.44,38.9,25.03,38.9L25.03,38.9L25.03,38.9z"/>
</svg>
