<?xml version="1.0" encoding="utf-8"?>
<!-- Generator: Adobe Illustrator 28.1.0, SVG Export Plug-In . SVG Version: 6.00 Build 0)  -->
<svg version="1.1" id="Layer_1" xmlns="http://www.w3.org/2000/svg" xmlns:xlink="http://www.w3.org/1999/xlink" x="0px" y="0px"
	 viewBox="0 0 100 100" style="enable-background:new 0 0 100 100;" xml:space="preserve">
<style type="text/css">
	.st0{fill:#C6C6C6;}
</style>
<path id="sort" class="st0" d="M29.08,81.87c-1.78,1.94-4.8,2.08-6.74,0.3c-0.11-0.1-0.21-0.2-0.3-0.3L8.91,67.55
	c-1.78-1.94-1.65-4.96,0.3-6.74s4.96-1.65,6.74,0.3l4.83,5.27V21.35c0.04-2.64,2.21-4.74,4.84-4.71c2.58,0.04,4.67,2.12,4.71,4.71
	v45.01l4.83-5.28c1.78-1.94,4.8-2.08,6.74-0.3s2.08,4.8,0.3,6.74L29.08,81.86V81.87z M54.21,83.42c-2.64,0.04-4.81-2.07-4.84-4.71
	c-0.04-2.64,2.07-4.81,4.71-4.84c0.05,0,0.09,0,0.14,0h4.78c2.64-0.04,4.81,2.07,4.84,4.71c0.04,2.64-2.07,4.81-4.71,4.84
	c-0.05,0-0.09,0-0.14,0H54.21z M54.21,64.32c-2.64,0.04-4.81-2.07-4.84-4.71s2.07-4.81,4.71-4.84c0.05,0,0.09,0,0.14,0h14.32
	c2.64,0.04,4.74,2.21,4.71,4.84c-0.04,2.58-2.12,4.67-4.71,4.71L54.21,64.32z M54.21,45.22c-2.64,0.04-4.81-2.07-4.84-4.71
	s2.07-4.81,4.71-4.84c0.05,0,0.09,0,0.14,0h23.87c2.64-0.04,4.81,2.07,4.84,4.71c0.04,2.64-2.07,4.81-4.71,4.84
	c-0.05,0-0.09,0-0.14,0H54.21z M54.21,26.12c-2.64,0.04-4.81-2.07-4.84-4.71s2.07-4.81,4.71-4.84c0.05,0,0.09,0,0.14,0h33.42
	c2.64,0.04,4.74,2.21,4.71,4.84c-0.04,2.58-2.12,4.67-4.71,4.71H54.21z"/>
</svg>
