<?xml version="1.0" encoding="utf-8"?>
<!-- Generator: Adobe Illustrator 28.1.0, SVG Export Plug-In . SVG Version: 6.00 Build 0)  -->
<svg version="1.1" id="Layer_1" xmlns="http://www.w3.org/2000/svg" xmlns:xlink="http://www.w3.org/1999/xlink" x="0px" y="0px"
	 viewBox="0 0 100 100" style="enable-background:new 0 0 100 100;" xml:space="preserve">
<style type="text/css">
	.st0{fill:#9B5C8F;}
	.st1{fill:#FFFFFF;}
</style>
<g id="woocommerce-2" transform="translate(9587 -288.385)">
	<path id="Path_10" class="st0" d="M-9569.29,314.79h64.54c4.08,0,7.39,3.3,7.39,7.38c0,0,0,0,0,0.01v24.64
		c0,4.08-3.3,7.39-7.38,7.39c0,0,0,0-0.01,0h-23.15l3.18,7.78l-13.97-7.78h-30.57c-4.08,0-7.39-3.3-7.39-7.38c0,0,0,0,0-0.01v-24.64
		c-0.02-4.06,3.26-7.37,7.33-7.39C-9569.31,314.79-9569.3,314.79-9569.29,314.79z"/>
	<path id="Path_11" class="st1" d="M-9572.13,321.52c0.49-0.63,1.24-0.99,2.03-1c1.64-0.13,2.58,0.64,2.8,2.32
		c1,6.74,2.08,12.44,3.25,17.12l7.06-13.44c0.65-1.23,1.45-1.87,2.42-1.93c1.42-0.1,2.29,0.8,2.64,2.71
		c0.67,3.76,1.69,7.45,3.06,11.02c0.84-8.19,2.26-14.1,4.25-17.73c0.39-0.83,1.21-1.38,2.13-1.42c0.74-0.06,1.46,0.17,2.03,0.65
		c0.58,0.44,0.95,1.11,1,1.84c0.04,0.54-0.07,1.07-0.32,1.54c-1.26,2.32-2.29,6.22-3.13,11.64c-0.8,5.25-1.1,9.35-0.9,12.28
		c0.08,0.73-0.06,1.47-0.39,2.13c-0.32,0.66-0.97,1.1-1.71,1.16c-0.99,0.01-1.92-0.43-2.55-1.19c-3-3.06-5.37-7.63-7.12-13.73
		c-2.1,4.13-3.64,7.22-4.64,9.28c-1.9,3.64-3.51,5.51-4.87,5.61c-0.87,0.06-1.61-0.68-2.26-2.22c-1.64-4.22-3.42-12.38-5.32-24.46
		C-9572.78,322.92-9572.6,322.14-9572.13,321.52L-9572.13,321.52z M-9502.86,326.58c-1.07-1.96-2.96-3.33-5.16-3.74
		c-0.57-0.12-1.16-0.19-1.74-0.19c-3.09,0-5.61,1.61-7.57,4.83c-1.67,2.73-2.54,5.88-2.51,9.09c-0.06,2.23,0.47,4.43,1.54,6.38
		c1.07,1.96,2.96,3.33,5.16,3.74c0.57,0.12,1.16,0.19,1.74,0.19c3.13,0,5.64-1.61,7.57-4.84c1.67-2.75,2.54-5.91,2.51-9.12
		C-9501.23,330.71-9501.77,328.51-9502.86,326.58z M-9506.93,335.51c-0.45,2.13-1.26,3.71-2.45,4.77c-0.93,0.84-1.8,1.19-2.61,1.03
		c-0.77-0.16-1.42-0.84-1.9-2.1c-0.37-0.93-0.57-1.93-0.58-2.93c-0.01-0.79,0.07-1.58,0.23-2.35c0.3-1.38,0.88-2.69,1.71-3.84
		c1.06-1.58,2.19-2.22,3.35-2c0.77,0.16,1.42,0.84,1.9,2.1c0.37,0.93,0.57,1.93,0.58,2.93
		C-9506.69,333.93-9506.77,334.73-9506.93,335.51L-9506.93,335.51z M-9523.04,326.58c-1.08-1.95-2.97-3.32-5.16-3.74
		c-0.57-0.12-1.16-0.19-1.74-0.19c-3.09,0-5.61,1.61-7.57,4.83c-1.67,2.73-2.55,5.88-2.51,9.09c-0.06,2.23,0.47,4.43,1.54,6.38
		c1.07,1.96,2.96,3.33,5.16,3.74c0.57,0.13,1.16,0.19,1.74,0.2c3.13,0,5.64-1.61,7.57-4.84c1.67-2.75,2.54-5.91,2.51-9.12
		C-9521.42,330.72-9521.96,328.52-9523.04,326.58L-9523.04,326.58z M-9527.13,335.51c-0.45,2.13-1.26,3.71-2.45,4.77
		c-0.94,0.84-1.81,1.19-2.61,1.03c-0.77-0.16-1.42-0.84-1.9-2.1c-0.37-0.93-0.57-1.93-0.58-2.93c-0.01-0.79,0.07-1.58,0.23-2.35
		c0.3-1.38,0.88-2.69,1.71-3.84c1.06-1.58,2.19-2.22,3.35-2c0.77,0.16,1.42,0.84,1.9,2.1c0.37,0.93,0.57,1.93,0.58,2.93
		C-9526.88,333.93-9526.96,334.73-9527.13,335.51L-9527.13,335.51z"/>
</g>
</svg>
