<?xml version="1.0" encoding="utf-8"?>
<!-- Generator: Adobe Illustrator 28.1.0, SVG Export Plug-In . SVG Version: 6.00 Build 0)  -->
<svg version="1.1" id="Layer_1" xmlns="http://www.w3.org/2000/svg" xmlns:xlink="http://www.w3.org/1999/xlink" x="0px" y="0px"
	 viewBox="0 0 100 100" style="enable-background:new 0 0 100 100;" xml:space="preserve">
<style type="text/css">
	.st0{fill:#2E3B4E;}
</style>
<g id="square-2" transform="translate(9310.999 -133.082)">
	<path id="Path_6" class="st0" d="M-9239.2,150.33h-43.61c-6.04,0-10.95,4.9-10.95,10.95c0,0,0,0,0,0v43.61
		c0,6.04,4.9,10.94,10.95,10.94h43.61c6.04,0,10.94-4.9,10.94-10.94c0,0,0,0,0,0v-43.6
		C-9228.25,155.24-9233.15,150.34-9239.2,150.33C-9239.19,150.33-9239.19,150.33-9239.2,150.33z M-9240.16,200.47
		c0,1.91-1.55,3.45-3.45,3.45h-34.77c-1.91,0-3.45-1.54-3.46-3.45V165.7c0-1.91,1.54-3.45,3.45-3.45c0,0,0,0,0,0h34.77
		c1.91,0,3.45,1.55,3.45,3.45c0,0,0,0,0,0L-9240.16,200.47L-9240.16,200.47z"/>
	<path id="Path_7" class="st0" d="M-9267.95,192.01c-1.1,0-1.99-0.9-1.98-1.99c0,0,0,0,0,0v-13.88c0-1.1,0.88-1.99,1.98-1.99
		c0,0,0,0,0,0h13.9c1.1,0,1.98,0.89,1.98,1.99c0,0,0,0,0,0v13.88c0,1.1-0.88,1.99-1.98,1.99c0,0,0,0,0,0H-9267.95z"/>
</g>
</svg>
