<?xml version="1.0" encoding="utf-8"?>
<!-- Generator: Adobe Illustrator 28.1.0, SVG Export Plug-In . SVG Version: 6.00 Build 0)  -->
<svg version="1.1" id="Layer_1" xmlns="http://www.w3.org/2000/svg" xmlns:xlink="http://www.w3.org/1999/xlink" x="0px" y="0px"
	 viewBox="0 0 100 100" style="enable-background:new 0 0 100 100;" xml:space="preserve">
<style type="text/css">
	.st0{fill:#1A1918;}
</style>
<path id="squarespace-2" class="st0" d="M61.21,30.38c-1.55-1.55-4.06-1.55-5.6,0c0,0,0,0,0,0L30.38,55.61
	c-3.12,3.07-8.14,3.03-11.21-0.09c-3.04-3.09-3.04-8.04,0-11.13l24.75-24.74c-3.1-3.1-8.12-3.1-11.21,0c0,0,0,0,0,0L13.55,38.79
	c-6.19,6.19-6.19,16.24,0,22.43s16.24,6.19,22.43,0l25.23-25.24C62.76,34.43,62.76,31.92,61.21,30.38L61.21,30.38z M69.62,21.97
	c-6.19-6.19-16.23-6.2-22.42-0.01c0,0,0,0-0.01,0.01L21.97,47.2c-1.52,1.57-1.49,4.08,0.09,5.61c1.54,1.49,3.98,1.49,5.52,0
	L52.8,27.57c3.09-3.1,8.11-3.1,11.21,0c0,0,0,0,0,0c1.55,1.55,4.06,1.55,5.61,0C71.17,26.03,71.17,23.52,69.62,21.97L69.62,21.97
	L69.62,21.97z M78.03,47.2c-1.55-1.55-4.06-1.55-5.61,0L47.2,72.43c-3.1,3.1-8.12,3.1-11.21,0c-1.55-1.55-4.06-1.55-5.61,0
	c-1.55,1.55-1.55,4.06,0,5.61l0,0c6.19,6.19,16.23,6.2,22.43,0c0,0,0,0,0,0L78.04,52.8C79.58,51.26,79.58,48.75,78.03,47.2
	L78.03,47.2z M86.45,38.79c-6.19-6.19-16.23-6.19-22.43,0c0,0,0,0,0,0L38.79,64.02c-1.55,1.55-1.55,4.06,0,5.61
	c1.55,1.55,4.06,1.55,5.61,0l25.23-25.23c3.12-3.07,8.14-3.03,11.21,0.09c3.04,3.09,3.04,8.04,0,11.12L56.09,80.35
	c3.1,3.1,8.12,3.1,11.21,0l19.14-19.14C92.64,55.02,92.64,44.98,86.45,38.79L86.45,38.79z"/>
</svg>
