<?xml version="1.0" encoding="utf-8"?>
<!-- Generator: Adobe Illustrator 28.1.0, SVG Export Plug-In . SVG Version: 6.00 Build 0)  -->
<svg version="1.1" id="Layer_1" xmlns="http://www.w3.org/2000/svg" xmlns:xlink="http://www.w3.org/1999/xlink" x="0px" y="0px"
	 viewBox="0 0 100 100" style="enable-background:new 0 0 100 100;" xml:space="preserve">
<style type="text/css">
	.st0{fill:#F27224;}
</style>
<path id="etsy-2" class="st0" d="M16.28,44.34V32.84c0-0.43,0.04-0.68,0.77-0.68h9.76c1.71,0,2.64,1.45,3.32,4.18l0.56,2.17h1.66
	c0.3-6.18,0.56-8.87,0.56-8.87s-4.18,0.47-6.65,0.47H13.77L7.07,29.9v1.79l2.26,0.43c1.58,0.3,1.96,0.64,2.09,2.09
	c0,0,0.13,4.26,0.13,11.3s-0.13,11.25-0.13,11.25c0,1.28-0.51,1.75-2.09,2.05l-2.26,0.43v1.79l6.69-0.22h11.17
	c2.51,0,8.35,0.21,8.35,0.21c0.13-1.53,0.98-8.48,1.11-9.25h-1.58l-1.66,3.79c-1.32,2.98-3.24,3.2-5.37,3.2h-6.35
	c-2.13,0-3.15-0.85-3.15-2.69v-9.72c0,0,4.65,0,6.27,0.13c1.19,0.09,1.92,0.43,2.3,2.09l0.51,2.22h1.83l-0.13-5.58l0.26-5.62h-1.83
	l-0.6,2.47c-0.38,1.62-0.64,1.92-2.3,2.09c-1.88,0.21-6.31,0.17-6.31,0.17L16.28,44.34L16.28,44.34L16.28,44.34z M41.56,34.03
	c-0.6,2.64-1.19,4.69-3.28,6.06c-0.92,0.63-1.97,1.03-3.07,1.19v1.62H39v13.08c0,3.67,2.43,5.46,5.67,5.46
	c2.51,0,5.11-1.07,6.01-3.28L49.78,57c-0.81,1.12-2.11,1.79-3.49,1.79c-1.88,0-2.9-1.28-2.9-4.52V42.73l6.31,0.47l0.34-2.9
	l-6.65,0.26v-6.48L41.56,34.03L41.56,34.03z M55.03,54.16l-1.62,0.04c0.09,0.94,0.13,2.13,0.13,3.24c0.02,0.91-0.03,1.82-0.13,2.73
	c2.1,0.73,4.3,1.13,6.52,1.19c4.43,0,7.97-2.13,7.97-6.31c0-7.16-10.74-6.09-10.74-10.91c0-2,1.79-2.77,3.75-2.77
	c1.53,0,2.81,0.56,3.07,1.36l1.07,3.2l1.58-0.09c0.13-1.71,0.21-3.67,0.47-5.24c-1.36-0.6-4.22-0.94-6.01-0.94
	c-4.18,0-7.55,1.83-7.55,5.92c0,7.12,10.49,5.67,10.49,10.91c0,1.87-1.15,3.2-3.75,3.2c-2.39,0-3.58-1.24-4.05-2.47L55.03,54.16
	L55.03,54.16z M80.72,59.08c-2.47,6.89-5.49,8.68-8.21,8.68c-1.15,0-1.7-0.51-1.87-1.32l-0.64-3.32l-1.79,0.09
	c-0.34,1.96-0.68,4.13-1.15,5.91c1.27,0.82,2.75,1.25,4.25,1.24c2.94,0,7.4-0.38,11.49-10.08l6.85-16.17
	c0.56-1.32,0.77-1.45,2.38-2.09l0.89-0.34v-1.49l-4.04,0.21l-4.34-0.21v1.49l1.11,0.34c1.11,0.34,1.62,0.77,1.62,1.53
	c-0.04,0.47-0.15,0.93-0.34,1.36c-0.64,1.62-4.6,11.23-5.66,13.28l1.06-0.38c-1.87-4.64-4.72-12.38-5.15-13.7
	c-0.08-0.22-0.12-0.45-0.13-0.68c0-0.68,0.47-1.24,1.49-1.45l1.4-0.3v-1.49l-5.83,0.21l-4.64-0.21v1.49l0.77,0.26
	c1.06,0.34,1.32,0.64,1.96,2.13c3.53,8.08,5.19,12.51,7.44,18.3L80.72,59.08z"/>
</svg>
