<?xml version="1.0" encoding="utf-8"?>
<!-- Generator: Adobe Illustrator 28.1.0, SVG Export Plug-In . SVG Version: 6.00 Build 0)  -->
<svg version="1.1" id="Layer_1" xmlns="http://www.w3.org/2000/svg" xmlns:xlink="http://www.w3.org/1999/xlink" x="0px" y="0px"
	 viewBox="0 0 100 100" style="enable-background:new 0 0 100 100;" xml:space="preserve">
<style type="text/css">
	.st0{fill:#34313F;}
</style>
<g id="bigcommerce-1" transform="translate(8769.143 375.125)">
	<path id="Path_1" class="st0" d="M-8717.02-319.65h9.95c2.83,0,4.62-1.56,4.62-4.06c0-2.36-1.79-4.06-4.62-4.06h-9.95
		c-0.32,0-0.59,0.25-0.61,0.57v6.98C-8717.61-319.9-8717.34-319.65-8717.02-319.65z M-8717.02-303.57h10.28
		c3.16,0,5.05-1.61,5.05-4.44c0-2.45-1.79-4.44-5.05-4.44h-10.28c-0.32,0-0.59,0.25-0.61,0.57v7.69
		C-8717.62-303.84-8717.35-303.57-8717.02-303.57L-8717.02-303.57z"/>
	<path id="Path_2" class="st0" d="M-8680.59-364.38l-29.44,29.34h4.81c7.5,0,11.94,4.72,11.94,9.86c0,4.06-2.74,7.03-5.66,8.35
		c-0.28,0.11-0.42,0.43-0.31,0.71c0.06,0.16,0.19,0.28,0.36,0.33c3.4,1.32,5.8,4.86,5.8,9.01c0,5.85-3.92,10.52-11.51,10.52h-20.85
		c-0.32,0-0.59-0.25-0.61-0.57v-22.22l-32.32,32.18c-0.27,0.27-0.27,0.7,0,0.98c0.13,0.13,0.3,0.2,0.48,0.2h77.71
		c0.29,0,0.52-0.23,0.52-0.52v-77.75c0.06-0.28-0.12-0.55-0.4-0.6C-8680.28-364.59-8680.47-364.53-8680.59-364.38z"/>
</g>
</svg>
