<?xml version="1.0" encoding="utf-8"?>
<!-- Generator: Adobe Illustrator 28.1.0, SVG Export Plug-In . SVG Version: 6.00 Build 0)  -->
<svg version="1.1" id="Layer_1" xmlns="http://www.w3.org/2000/svg" xmlns:xlink="http://www.w3.org/1999/xlink" x="0px" y="0px"
	 viewBox="0 0 100 100" style="enable-background:new 0 0 100 100;" xml:space="preserve">
<style type="text/css">
	.st0{clip-path:url(#SVGID_00000107549860767936519900000010661331466254672275_);}
	.st1{fill:#169154;}
	.st2{fill:#18482A;}
	.st3{fill:#0C8045;}
	.st4{fill:#17472A;}
	.st5{fill:#29C27F;}
	.st6{fill:#27663F;}
	.st7{fill:#19AC65;}
	.st8{fill:#129652;}
	.st9{fill:#0C7238;}
	.st10{fill:#FFFFFF;}
</style>
<g id="Group_16" transform="translate(286.278 645)">
	<g>
		<defs>
			<rect id="SVGID_1_" x="-271.33" y="-626.54" width="70.1" height="63.09"/>
		</defs>
		<clipPath id="SVGID_00000052825607786481921220000015146600096042375822_">
			<use xlink:href="#SVGID_1_"  style="overflow:visible;"/>
		</clipPath>
		<g id="Group_16-2" style="clip-path:url(#SVGID_00000052825607786481921220000015146600096042375822_);">
			<path id="Path_18" class="st1" d="M-227.52-626.54h-23.23c-1.69,0-3.06,1.37-3.06,3.06v12.72h26.29V-626.54z"/>
			<path id="Path_19" class="st2" d="M-253.8-579.13v12.62c0,1.69,1.37,3.06,3.05,3.06h23.23v-15.68H-253.8z"/>
			<rect id="Rectangle_39" x="-253.8" y="-610.77" class="st3" width="26.29" height="15.78"/>
			<rect id="Rectangle_40" x="-253.8" y="-594.99" class="st4" width="26.29" height="15.86"/>
			<path id="Path_20" class="st5" d="M-204.29-626.54h-23.23v15.78h26.29v-12.72C-201.23-625.17-202.6-626.54-204.29-626.54"/>
			<path id="Path_21" class="st6" d="M-227.52-579.13v15.68h23.23c1.69,0,3.05-1.37,3.05-3.05v-12.62L-227.52-579.13L-227.52-579.13
				z"/>
			<rect id="Rectangle_41" x="-227.52" y="-610.77" class="st7" width="26.29" height="15.78"/>
			<rect id="Rectangle_42" x="-227.52" y="-594.99" class="st8" width="26.29" height="15.86"/>
			<path id="Path_22" class="st9" d="M-239.22-577.48h-29.16c-1.63,0-2.95-1.32-2.95-2.95v-29.16c0-1.63,1.32-2.95,2.95-2.95h29.16
				c1.63,0,2.95,1.32,2.95,2.95v29.16C-236.28-578.8-237.6-577.48-239.22-577.48"/>
			<path id="Path_23" class="st10" d="M-261.15-603.76h4.18l3.39,6.58l3.58-6.58h3.91l-5.38,8.76l5.51,8.76h-4.12l-3.7-6.89
				l-3.68,6.89h-4.18l5.6-8.79L-261.15-603.76z"/>
		</g>
	</g>
</g>
</svg>
