<?xml version="1.0" encoding="utf-8"?>
<!-- Generator: Adobe Illustrator 28.1.0, SVG Export Plug-In . SVG Version: 6.00 Build 0)  -->
<svg version="1.1" id="Layer_1" xmlns="http://www.w3.org/2000/svg" xmlns:xlink="http://www.w3.org/1999/xlink" x="0px" y="0px"
	 viewBox="0 0 100 100" style="enable-background:new 0 0 100 100;" xml:space="preserve">
<style type="text/css">
	.st0{fill:#95BF46;}
	.st1{fill:#5E8E3E;}
	.st2{fill:#FFFFFF;}
</style>
<g id="shopify-2" transform="translate(8601.066 -142.779)">
	<path id="Path_3" class="st0" d="M-8525.78,169.42c-0.06-0.33-0.33-0.59-0.67-0.62c-0.28-0.02-6.16-0.46-6.16-0.46
		s-4.08-4.06-4.53-4.5c-0.49-0.33-1.11-0.41-1.66-0.21c-0.05,0.01-0.89,0.27-2.29,0.71c-1.36-3.93-3.77-7.54-8.01-7.54
		c-0.12,0-0.24,0-0.36,0.01c-1.2-1.59-2.7-2.29-3.99-2.29c-9.87,0-14.58,12.34-16.06,18.61c-3.83,1.19-6.56,2.03-6.91,2.14
		c-2.14,0.67-2.21,0.74-2.49,2.76c-0.21,1.53-5.81,44.84-5.81,44.84l43.64,8.18l23.65-5.12
		C-8517.42,225.92-8525.72,169.8-8525.78,169.42L-8525.78,169.42z M-8543.5,165.07l-3.69,1.14c0-0.26,0-0.52,0-0.8
		c0.04-2.02-0.26-4.04-0.88-5.96C-8545.89,159.73-8544.44,162.22-8543.5,165.07z M-8550.78,159.94c0.74,2.14,1.08,4.39,1,6.65
		c0,0.15,0,0.29,0,0.43l-7.63,2.36C-8555.94,163.71-8553.19,160.98-8550.78,159.94z M-8553.71,157.17c0.46,0.01,0.9,0.16,1.27,0.43
		c-3.16,1.49-6.55,5.24-7.98,12.72l-6.03,1.87C-8564.78,166.47-8560.8,157.17-8553.71,157.17L-8553.71,157.17z"/>
	<path id="Path_4" class="st1" d="M-8526.44,168.8c-0.28-0.02-6.16-0.46-6.16-0.46s-4.08-4.06-4.53-4.5
		c-0.17-0.16-0.4-0.26-0.63-0.29l-3.3,67.49l23.64-5.11c0,0-8.3-56.12-8.35-56.51C-8525.83,169.08-8526.11,168.83-8526.44,168.8"/>
	<path id="Path_5" class="st2" d="M-8549.1,181.87l-2.92,8.67c-1.77-0.87-3.71-1.33-5.68-1.36c-4.59,0-4.82,2.88-4.82,3.61
		c0,3.96,10.33,5.48,10.33,14.76c0,7.3-4.63,12-10.87,12c-7.49,0-11.32-4.66-11.32-4.66l2-6.63c0,0,3.94,3.38,7.26,3.38
		c1.62,0.07,2.98-1.19,3.05-2.8c0-0.05,0-0.1,0-0.16c0-5.17-8.47-5.4-8.47-13.89c0-7.15,5.13-14.06,15.48-14.06
		C-8551.07,180.72-8549.1,181.87-8549.1,181.87"/>
</g>
</svg>
