<?xml version="1.0" encoding="utf-8"?>
<!-- Generator: Adobe Illustrator 28.1.0, SVG Export Plug-In . SVG Version: 6.00 Build 0)  -->
<svg version="1.1" id="Layer_1" xmlns="http://www.w3.org/2000/svg" xmlns:xlink="http://www.w3.org/1999/xlink" x="0px" y="0px"
	 viewBox="0 0 100 100" style="enable-background:new 0 0 100 100;" xml:space="preserve">
<style type="text/css">
	.st0{fill:#C6C6C6;}
</style>
<path id="trash" class="st0" d="M36.1,12.5c0.85-1.71,2.59-2.79,4.5-2.79h18.95c1.91,0,3.65,1.08,4.5,2.79l1.13,2.25h15.11
	c2.78,0.04,5,2.33,4.96,5.11c-0.04,2.73-2.24,4.93-4.96,4.96H19.86c-2.78,0.04-5.07-2.18-5.11-4.96c-0.04-2.78,2.18-5.07,4.96-5.11
	c0.05,0,0.09,0,0.14,0h15.11L36.1,12.5z M19.86,29.86h60.43v50.36c-0.01,5.56-4.51,10.07-10.07,10.07H29.93
	c-5.56-0.01-10.07-4.51-10.07-10.07V29.86z M34.96,39.93c-1.39,0-2.51,1.13-2.52,2.52V77.7c0,1.39,1.13,2.52,2.52,2.52
	c1.39,0,2.52-1.13,2.52-2.52c0,0,0,0,0,0V42.45C37.48,41.06,36.35,39.93,34.96,39.93z M50.07,39.93c-1.39,0-2.51,1.13-2.52,2.52
	V77.7c0,1.39,1.13,2.52,2.52,2.52c1.39,0,2.52-1.13,2.52-2.52c0,0,0,0,0,0V42.45C52.59,41.06,51.46,39.93,50.07,39.93z M65.18,39.93
	c-1.39,0-2.51,1.13-2.52,2.52V77.7c0,1.39,1.13,2.52,2.52,2.52c1.39,0,2.52-1.13,2.52-2.52c0,0,0,0,0,0V42.45
	C67.69,41.06,66.57,39.93,65.18,39.93z"/>
</svg>
