<?xml version="1.0" encoding="utf-8"?>
<!-- Generator: Adobe Illustrator 28.1.0, SVG Export Plug-In . SVG Version: 6.00 Build 0)  -->
<svg version="1.1" id="Layer_1" xmlns="http://www.w3.org/2000/svg" xmlns:xlink="http://www.w3.org/1999/xlink" x="0px" y="0px"
	 viewBox="0 0 100 100" style="enable-background:new 0 0 100 100;" xml:space="preserve">
<style type="text/css">
	.st0{fill:#C6C6C6;}
</style>
<path id="truck-fast-solid" class="st0" d="M17.94,10.56c-4.09,0-7.4,3.32-7.41,7.41v7.41H3.13c-1.36,0-2.47,1.11-2.47,2.47
	c0,1.36,1.11,2.47,2.47,2.47h39.5c1.36,0,2.47,1.11,2.47,2.47c0,1.36-1.11,2.47-2.47,2.47H8.07c-1.36,0-2.47,1.11-2.47,2.47
	c0,1.36,1.11,2.47,2.47,2.47h29.62c1.36,0,2.47,1.11,2.47,2.47c0,1.36-1.11,2.47-2.47,2.47H3.13c-1.36,0-2.47,1.11-2.47,2.47
	c0,1.36,1.11,2.47,2.47,2.47h29.63c1.36,0,2.47,1.11,2.47,2.47c0,1.36-1.11,2.47-2.47,2.47H10.53v19.75
	c0.07,8.18,6.75,14.76,14.93,14.69c8.09-0.07,14.62-6.6,14.69-14.69h19.75c0.07,8.18,6.75,14.76,14.93,14.69
	c8.09-0.07,14.62-6.6,14.69-14.69h4.94c2.73-0.04,4.91-2.28,4.87-5.01c-0.04-2.67-2.2-4.83-4.87-4.87v-17.7
	c0-2.62-1.03-5.13-2.89-6.99L79.66,28.26c-1.86-1.85-4.37-2.89-6.99-2.89h-7.82v-7.41c0-4.09-3.32-7.41-7.41-7.41H17.94z
	 M84.6,47.17v2.88H64.85V35.25h7.82L84.6,47.17z M25.35,67.34c4.09,0,7.41,3.32,7.41,7.41c0,4.09-3.32,7.41-7.41,7.41
	s-7.41-3.32-7.41-7.41l0,0C17.94,70.66,21.26,67.34,25.35,67.34z M67.32,74.75c0-4.09,3.32-7.41,7.41-7.41s7.41,3.32,7.41,7.41
	c0,4.09-3.32,7.41-7.41,7.41c0,0,0,0,0,0C70.63,82.15,67.32,78.84,67.32,74.75L67.32,74.75z"/>
</svg>
