<?xml version="1.0" encoding="utf-8"?>
<!-- Generator: Adobe Illustrator 28.1.0, SVG Export Plug-In . SVG Version: 6.00 Build 0)  -->
<svg version="1.1" id="Layer_1" xmlns="http://www.w3.org/2000/svg" xmlns:xlink="http://www.w3.org/1999/xlink" x="0px" y="0px"
	 viewBox="0 0 100 100" style="enable-background:new 0 0 100 100;" xml:space="preserve">
<style type="text/css">
	.st0{fill:#C6C6C6;}
</style>
<path id="upload" class="st0" d="M25.94,11.04c-5.43,0-9.83,4.4-9.83,9.83v59.01c0,5.43,4.4,9.83,9.83,9.83h39.34
	c5.43,0,9.83-4.4,9.83-9.83V35.62H55.44c-2.71,0-4.91-2.19-4.92-4.91c0,0,0-0.01,0-0.01V11.04H25.94z M55.44,11.04V30.7h19.67
	L55.44,11.04z M49.29,73.73c0,2.04-1.65,3.69-3.69,3.69c-2.04,0-3.69-1.65-3.69-3.69V58.04l-4.76,4.76c-1.44,1.44-3.77,1.44-5.21,0
	c-1.44-1.44-1.44-3.77,0-5.21l11.06-11.05c1.43-1.44,3.76-1.44,5.19-0.01c0,0,0.01,0.01,0.01,0.01l11.06,11.06
	c1.44,1.44,1.44,3.77,0,5.21s-3.77,1.44-5.21,0l-4.76-4.77v15.69H49.29z"/>
</svg>
