<?xml version="1.0" encoding="utf-8"?>
<!-- Generator: Adobe Illustrator 28.1.0, SVG Export Plug-In . SVG Version: 6.00 Build 0)  -->
<svg version="1.1" id="Layer_1" xmlns="http://www.w3.org/2000/svg" xmlns:xlink="http://www.w3.org/1999/xlink" x="0px" y="0px"
	 viewBox="0 0 100 100" style="enable-background:new 0 0 100 100;" xml:space="preserve">
<style type="text/css">
	.st0{fill:#C6C6C6;}
</style>
<path id="hat-wizard-solid" class="st0" d="M20.49,74.96L36.57,38.8c2.34-5.28,6.19-9.76,11.07-12.86l22.58-14.45
	c0.46-0.29,0.99-0.44,1.54-0.44c1.56-0.01,2.83,1.25,2.84,2.81c0,0.01,0,0.02,0,0.03v0.25c0,0.39-0.07,0.78-0.21,1.15l-9.19,22.93
	c-0.29,0.72-0.43,1.49-0.43,2.26c0,0.85,0.18,1.69,0.52,2.47l14.23,32.01H47.68l1.81-5.44l6.21-2.08c1.29-0.44,1.98-1.84,1.55-3.13
	c-0.25-0.73-0.82-1.3-1.55-1.55l-6.21-2.08l-2.08-6.21c-0.45-1.29-1.85-1.97-3.14-1.52c-0.72,0.25-1.28,0.82-1.53,1.54l-2.08,6.21
	l-6.21,2.08c-1.29,0.44-1.98,1.84-1.55,3.13c0.25,0.73,0.82,1.3,1.55,1.55l6.21,2.07l1.81,5.43L20.49,74.96z M53.63,32.77
	c-0.21-0.65-0.91-1-1.55-0.78c-0.37,0.12-0.66,0.41-0.78,0.78l-1.03,3.1l-3.1,1.03c-0.65,0.21-1,0.91-0.78,1.55
	c0.12,0.37,0.41,0.66,0.78,0.78l3.1,1.03l1.03,3.1c0.21,0.65,0.91,1,1.55,0.78c0.37-0.12,0.66-0.41,0.78-0.78l1.03-3.1l3.1-1.03
	c0.65-0.21,1-0.91,0.78-1.55c-0.12-0.37-0.41-0.66-0.78-0.78l-3.1-1.03L53.63,32.77z M15.57,79.88h68.85c2.72,0,4.92,2.2,4.92,4.92
	c0,2.71-2.2,4.91-4.92,4.92H15.57c-2.72,0-4.92-2.2-4.92-4.92C10.66,82.08,12.86,79.88,15.57,79.88z"/>
</svg>
